<svg xmlns="http://www.w3.org/2000/svg" width="512" height="512"><path fill="#212d5d" d="M0 0h512v512H0z"/><path fill="#fefefe" d="M256 78c2.097 2.097 2.933 3.714 4.18 6.383l1.297 2.75 1.398 2.992c7.436 15.72 15.14 31.303 23.25 46.688l1.218 2.31a1058 1058 0 0 0 6.29 11.713c11.446 21.12 20.35 42.858 13.983 67.177-1.701 5.487-4.593 10.495-7.303 15.532-15.951 29.82-26.922 58.9-31.313 92.455h3l-.187-3.062c.132-25.245 13.09-50.295 29.187-68.938l1.762-2.07C314.759 238.935 332.12 230.285 349 226l2.625-.684c16.933-3.742 35.81-2.037 50.848 6.918 4.568 3.192 8.585 6.838 12.527 10.766l1.71 1.64c8.211 8.602 13.385 21.655 14.29 33.36l.164 2.09c.515 12.935-4.636 24.616-12.664 34.535-9.894 10.495-25.226 18.46-39.5 20.375l.656-1.73c3.93-11.447 3.4-22.258-1.656-33.27-3.885-7.2-10.098-11.905-17.805-14.64-10.756-1.761-21.24-.762-31.195 3.64l-2.64 1.133c-15.017 6.955-27.425 19.37-33.36 34.867l2.633.113c12.877.735 12.877.735 18.305 5.637 1.65 3.495 1.153 5.591.062 9.25-4.475 4.678-7.8 5.9-14.113 6.098l-3.2-.036-3.238-.027L291 346c3.474 10.03 3.474 10.03 11 17 6.298 2.814 11.738 2.644 18.188.438 3.815-1.679 6.467-3.28 8.257-7.262 2.245-8.807.333-16.181-3.445-24.176l-1-3c10.343-.48 19.717.19 28 7 7.59 7.19 11.147 14.506 11.5 25-.315 9.68-3.63 18.072-10.5 25-10.246 8.623-23.706 11.822-36.914 11.316-13.566-1.39-25.37-6.627-34.086-17.316-7.406-9.863-10.438-21.8-11-34h-3c.163 3.69.389 7.376.625 11.063l.137 3.146c.438 6.276 1.292 9.86 5.79 14.335 1.952 1.963 2.934 4.047 4.01 6.581l1.227 2.836c1.29 3.239 2.465 6.51 3.649 9.789 2.061 5.51 4.417 9.105 8.562 13.25-5.42.354-9.622-.618-14.766-2.344-2.326-.797-2.326-.797-5.234-.656l-.673 1.814c-2.528 6.588-5.612 12.672-9.077 18.811l-1.535 2.754q-1.85 3.315-3.715 6.621c-7.098-9.293-13.295-19.885-17-31l-3.187 1.438C231.097 406.86 226.15 407.104 220 407l2.125-1.875c6.432-6.504 9.62-14.754 12.719-23.195 1.58-4.002 3.36-7.442 6.728-10.232 1.991-2.368 1.948-4.178 2.158-7.241l.245-3.252.213-3.392.248-3.428q.3-4.192.564-8.385h-4l.188 3.25c-.067 12.586-5.485 25.842-14.168 34.941-10.894 9.756-24.162 13.632-38.676 13.125-12.073-1.142-23.569-5.368-31.914-14.472-5.69-7.338-8.24-16.614-7.43-25.844 1.947-9.798 6.451-18.08 14.813-23.781 7.771-4.33 15.453-4.624 24.187-4.219l-.586 1.688c-.83 2.43-1.627 4.868-2.414 7.312l-.68 2.063c-1.919 6.52-1.723 12.232 1.43 18.312 3.614 4.216 6.56 5.7 12 6.5 6.562.47 11.69-1.013 17-4.875 3.23-4.308 5.208-9.039 7.25-14l-2.562.14c-6.977.223-12.775.32-18.438-4.14-2.27-2.682-3-4-3-7.5 1.344-3.359 3.272-5.162 6-7.5 3.422-1.14 6.087-1.098 9.688-1.062l3.574.027L220 326c-8.268-17.898-19.263-29.218-37.244-37.218a137 137 0 0 1-4.15-1.946c-8.33-3.516-21.355-3.66-29.731-.274-2.014 1.091-2.014 1.091-3.875 2.438l-2.133 1.473C136.48 295.458 132.712 302.1 131 310a191 191 0 0 0-.187 8.25l-.038 2.2c-.013 5.163.804 9.584 2.225 14.55-17.245-3.507-33.397-12.854-44-27-6.877-11.083-9.08-24.172-6.613-37.013C84.59 262.105 88.53 254.307 94 247l1.734-2.36c9.417-11.67 23.533-18.685 38.266-20.64 28.02-1.437 51.934 6.71 72.941 25.652 19.715 18.463 33.263 46.852 34.184 74.036L241 326h3c-4.421-31.46-14.2-59.54-29.363-87.352-9.863-18.134-14.246-34.32-9.782-54.843 3.644-12.113 9.132-23.19 14.833-34.43l2.446-4.86c4.323-8.575 8.7-17.119 13.224-25.59 5.61-10.545 10.86-21.28 16.175-31.975Q253.761 82.472 256 78"/></svg>